<svg width="157" height="53" viewBox="0 0 157 53" fill="none" xmlns="http://www.w3.org/2000/svg">
<path d="M0 0V5.7203H47.4675V22.8738H11.8707V28.5941H47.4675V45.7477H0V51.468H53.4028V0H0Z" fill="white"/>
<path d="M41.5321 34.3153H5.93534V17.1544H41.5321V11.4414H0V40.0282H41.5321V34.3153Z" fill="white"/>
<path d="M83.9565 31.3076C83.5826 30.7341 83.1173 30.2268 82.5603 29.793C82.0034 29.3592 81.3702 29.021 80.6684 28.7783C79.9665 28.5357 79.2265 28.4107 78.456 28.4107C77.0522 28.4107 75.8545 28.6754 74.8703 29.1974C73.8862 29.7195 73.0928 30.4253 72.4825 31.3076C71.8722 32.1899 71.4297 33.1972 71.1474 34.3222C70.8728 35.4471 70.7278 36.6162 70.7278 37.8146C70.7278 39.0131 70.8651 40.0866 71.1474 41.1748C71.4297 42.2629 71.8722 43.2408 72.4825 44.1084C73.0928 44.976 73.8862 45.6745 74.8703 46.2039C75.8545 46.726 77.0446 46.9907 78.456 46.9907C80.3708 46.9907 81.8585 46.4245 82.9418 45.2996C84.0175 44.1746 84.6736 42.6894 84.7193 42.1085H90.7768C90.8149 42.5644 90.4029 44.1084 89.7392 45.4907C89.0755 46.873 88.1982 48.0494 87.1072 49.02C86.0163 49.9905 84.7422 50.7331 83.2851 51.2478C81.8203 51.7625 80.2183 52.0125 78.4636 52.0125C76.2893 52.0125 74.3287 51.6448 72.5893 50.9169C70.8499 50.189 69.3851 49.1817 68.1874 47.9024C66.9896 46.623 66.0741 45.1157 65.4409 43.3879C64.8001 41.66 64.4873 39.7998 64.4873 37.7999C64.4873 35.8 64.8077 33.8516 65.4409 32.1017C66.0818 30.3518 66.9972 28.8224 68.1874 27.5137C69.3851 26.2123 70.8499 25.1829 72.5893 24.4403C74.3287 23.6977 76.2893 23.3301 78.4636 23.3301C80.0275 23.3301 81.5075 23.5507 82.9036 23.9845C84.2998 24.4183 85.5433 25.0506 86.6495 25.8814C87.7557 26.7123 88.6635 27.7416 89.3807 28.9695C90.0978 30.1974 90.5479 31.6091 90.731 33.1899H84.6736C84.5668 32.4987 84.3303 31.8664 83.9565 31.2929V31.3076Z" fill="white"/>
<path d="M103.395 35.3955C104.082 35.344 104.73 35.197 105.325 34.9544C105.928 34.7117 106.416 34.3588 106.798 33.8956C107.187 33.4324 107.378 32.8221 107.378 32.0501C107.378 30.8957 106.981 30.0134 106.18 29.4032C105.379 28.7855 104.463 28.4841 103.433 28.4841C101.999 28.4841 100.916 28.94 100.191 29.8443C99.4588 30.756 99.1078 31.8957 99.1383 33.278H93.7599C93.8133 31.8957 94.0727 30.6384 94.5381 29.4987C95.0034 28.3591 95.6519 27.3812 96.4911 26.5651C97.3303 25.7489 98.3297 25.1166 99.4969 24.6681C100.664 24.2196 101.969 23.999 103.403 23.999C104.517 23.999 105.631 24.1608 106.752 24.4769C107.866 24.8005 108.865 25.2784 109.758 25.918C110.65 26.5577 111.375 27.3371 111.925 28.2635C112.481 29.1826 112.764 30.2487 112.764 31.4472C112.764 32.7559 112.436 33.9029 111.787 34.9029C111.139 35.9028 110.162 36.5793 108.858 36.9395V37.0131C110.399 37.3439 111.604 38.0645 112.481 39.16C113.359 40.2629 113.794 41.579 113.794 43.1157C113.794 44.5274 113.511 45.7773 112.939 46.8802C112.367 47.9831 111.604 48.9022 110.65 49.6448C109.697 50.3874 108.591 50.9462 107.347 51.3359C106.096 51.7182 104.799 51.9094 103.441 51.9094C101.877 51.9094 100.451 51.6888 99.1612 51.255C97.8719 50.8212 96.781 50.1889 95.8731 49.358C94.9653 48.5272 94.271 47.5125 93.7828 46.3067C93.2945 45.1009 93.058 43.7186 93.0886 42.1599H98.467C98.4899 42.8731 98.6119 43.5642 98.8255 44.2112C99.0392 44.8656 99.3443 45.4244 99.741 45.9023C100.138 46.3802 100.641 46.7552 101.236 47.0346C101.831 47.314 102.541 47.4537 103.365 47.4537C104.639 47.4537 105.715 47.0787 106.592 46.3214C107.469 45.5641 107.904 44.5348 107.904 43.2333C107.904 42.2113 107.698 41.432 107.286 40.8879C106.874 40.3438 106.348 39.9615 105.715 39.7188C105.074 39.4762 104.379 39.3365 103.624 39.2997C102.869 39.263 102.144 39.2409 101.45 39.2409V35.4029C102.06 35.4543 102.709 35.4543 103.403 35.4029L103.395 35.3955Z" fill="white"/>
<path d="M123.031 45.4902V51.4017H116.775V45.4902H123.031Z" fill="white"/>
<path d="M127.249 37.6589C127.326 36.3796 127.661 35.3134 128.249 34.4752C128.836 33.6297 129.576 32.9533 130.477 32.4386C131.377 31.9313 132.391 31.5636 133.52 31.343C134.65 31.1225 135.786 31.0195 136.931 31.0195C137.968 31.0195 139.013 31.0931 140.074 31.2328C141.134 31.3725 142.103 31.6519 142.98 32.0562C143.858 32.468 144.575 33.0341 145.132 33.762C145.689 34.4899 145.971 35.4605 145.971 36.659V46.9893C145.971 47.8863 146.024 48.7392 146.131 49.5627C146.238 50.3789 146.421 50.9965 146.688 51.4082H140.951C140.844 51.0994 140.76 50.7906 140.692 50.4671C140.631 50.1436 140.577 49.8201 140.554 49.4892C139.654 50.3862 138.586 51.0112 137.365 51.3714C136.145 51.7317 134.894 51.9082 133.62 51.9082C132.636 51.9082 131.72 51.7905 130.873 51.5626C130.026 51.3347 129.279 50.9744 128.646 50.4891C128.005 50.0039 127.509 49.3863 127.15 48.6436C126.792 47.901 126.609 47.0187 126.609 45.9967C126.609 44.8718 126.815 43.9454 127.227 43.2101C127.639 42.4822 128.165 41.9013 128.821 41.4602C129.47 41.0264 130.217 40.7029 131.049 40.4823C131.888 40.2617 132.727 40.0926 133.582 39.9676C134.428 39.8426 135.268 39.7397 136.091 39.6588C136.915 39.5853 137.64 39.4676 138.281 39.3132C138.922 39.1588 139.425 38.9383 139.799 38.6441C140.173 38.35 140.341 37.9236 140.318 37.3574C140.318 36.7692 140.219 36.2987 140.02 35.9531C139.822 35.6075 139.555 35.3355 139.227 35.1443C138.891 34.9532 138.51 34.8282 138.075 34.762C137.633 34.6958 137.167 34.6664 136.656 34.6664C135.542 34.6664 134.665 34.8943 134.024 35.3575C133.391 35.8208 133.017 36.5854 132.91 37.6589H127.249ZM140.318 41.6881C140.081 41.894 139.776 42.0557 139.418 42.166C139.059 42.2763 138.678 42.3793 138.266 42.4528C137.854 42.5263 137.427 42.5925 136.969 42.6439C136.519 42.6954 136.069 42.7616 135.618 42.8351C135.191 42.9086 134.772 43.0116 134.367 43.1439C133.955 43.2763 133.597 43.4454 133.292 43.6586C132.986 43.8792 132.742 44.1512 132.559 44.4821C132.369 44.813 132.277 45.2394 132.277 45.7467C132.277 46.2541 132.369 46.6437 132.559 46.9746C132.742 47.3055 132.994 47.5702 133.315 47.7613C133.635 47.9525 134.001 48.0848 134.428 48.1657C134.856 48.2466 135.29 48.2834 135.741 48.2834C136.854 48.2834 137.716 48.1069 138.334 47.7466C138.945 47.3864 139.395 46.9599 139.685 46.4599C139.975 45.96 140.158 45.4526 140.226 44.9453C140.287 44.4306 140.326 44.0262 140.326 43.7174V41.6808L140.318 41.6881Z" fill="white"/>
<path d="M150.398 28.4836V23.9912H156.058V28.4836H150.398ZM156.058 31.557V51.4089H150.398V31.557H156.058Z" fill="white"/>
</svg>
